<?xml version="1.0" encoding="UTF-8" standalone="no"?>
<!DOCTYPE svg PUBLIC "-//W3C//DTD SVG 1.1//EN" "http://www.w3.org/Graphics/SVG/1.1/DTD/svg11.dtd">
<svg width="100%" height="100%" viewBox="0 0 217 141" version="1.1" xmlns="http://www.w3.org/2000/svg" xmlns:xlink="http://www.w3.org/1999/xlink" xml:space="preserve" xmlns:serif="http://www.serif.com/" style="fill-rule:evenodd;clip-rule:evenodd;stroke-linejoin:round;stroke-miterlimit:2;">
    <g transform="matrix(1,0,0,1,-209.3,-108.459)">
        <g transform="matrix(1,0,0,1,-241.32,-108.466)">
            <g>
                <g>
                    <g>
                        <g>
                            <g>
                                <g>
                                    <g>
                                        <g>
                                            <g>
                                                <g>
                                                    <path d="M551.92,325.73L516.83,325.73L516.83,321.64L526.52,318.69L526.52,224.09L516.83,221.14L516.83,217.05L542.33,217.05L542.33,318.7L551.92,321.65L551.92,325.73Z" style="fill:rgb(255,75,0);fill-rule:nonzero;"/>
                                                </g>
                                            </g>
                                        </g>
                                    </g>
                                </g>
                            </g>
                        </g>
                    </g>
                    <path d="M547.33,217.05C558.11,216.58 566.97,217.25 575.26,222.45C581.29,226.23 587.17,233.91 587.59,242.6L570.46,242.6C570.37,236.7 568.53,232.06 566.07,228.89C561.51,223.04 554.08,221.33 547.34,221.89L547.34,217.05L547.33,217.05Z" style="fill-rule:nonzero;"/>
                    <path d="M550.91,275.59C549.8,275.6 548.64,275.6 547.39,275.58L547.39,269.69C559.46,270.36 569.82,264.46 570.53,247.54L587.66,247.54C586.43,257.2 581.14,265.32 575.11,269.1C572.63,270.65 570.47,271.88 568.25,272.82C577.78,278.96 580.77,289.78 582.81,297.17C583.8,300.75 585.11,307.75 587.47,312.44C589.65,316.75 593.35,319.87 599.32,319.32L599.96,323.7C595.22,326.62 590.82,327.14 586.18,326.68C578.98,325.96 572,320.05 565.33,300.35C564.18,296.97 562.89,292.65 561.7,288.54C559.54,281.12 557.09,275.58 550.91,275.59Z" style="fill:rgb(255,75,0);fill-rule:nonzero;"/>
                </g>
            </g>
        </g>
        <g>
            <g>
                <g>
                    <path d="M216.11,245.66C216.6,245.66 217.04,245.58 217.43,245.41C217.82,245.25 218.15,245.01 218.41,244.71C218.67,244.41 218.88,244.03 219.02,243.6C219.16,243.16 219.23,242.66 219.23,242.1L219.23,232.72L222.91,232.72L222.91,242.1C222.91,243.07 222.75,243.96 222.44,244.77C222.13,245.58 221.67,246.28 221.09,246.87C220.5,247.46 219.79,247.91 218.95,248.24C218.11,248.57 217.16,248.73 216.11,248.73C215.05,248.73 214.1,248.57 213.26,248.24C212.42,247.91 211.7,247.46 211.12,246.87C210.53,246.28 210.08,245.58 209.77,244.77C209.46,243.96 209.3,243.07 209.3,242.1L209.3,232.72L212.98,232.72L212.98,242.09C212.98,242.65 213.05,243.15 213.19,243.59C213.33,244.03 213.54,244.4 213.8,244.71C214.07,245.02 214.4,245.25 214.78,245.42C215.18,245.58 215.62,245.66 216.11,245.66Z" style="fill-rule:nonzero;"/>
                    <path d="M223.57,246.86C223.57,246.6 223.62,246.36 223.72,246.13C223.82,245.91 223.95,245.71 224.12,245.54C224.29,245.37 224.49,245.24 224.72,245.14C224.95,245.04 225.21,244.99 225.48,244.99C225.75,244.99 226,245.04 226.23,245.14C226.46,245.24 226.66,245.37 226.84,245.54C227.01,245.71 227.15,245.9 227.25,246.13C227.35,246.35 227.4,246.6 227.4,246.86C227.4,247.12 227.35,247.37 227.25,247.59C227.15,247.82 227.02,248.02 226.84,248.18C226.67,248.35 226.46,248.48 226.23,248.57C226,248.66 225.75,248.71 225.48,248.71C225.2,248.71 224.95,248.66 224.72,248.57C224.49,248.48 224.29,248.35 224.12,248.18C223.95,248.01 223.82,247.82 223.72,247.59C223.62,247.36 223.57,247.12 223.57,246.86Z" style="fill-rule:nonzero;"/>
                    <path d="M238.19,235.94C238.08,236.11 237.97,236.24 237.85,236.33C237.73,236.42 237.58,236.46 237.39,236.46C237.22,236.46 237.04,236.41 236.85,236.3C236.66,236.19 236.44,236.08 236.2,235.95C235.96,235.82 235.68,235.7 235.37,235.6C235.06,235.5 234.7,235.44 234.3,235.44C233.61,235.44 233.1,235.59 232.76,235.88C232.42,236.17 232.25,236.57 232.25,237.07C232.25,237.39 232.35,237.65 232.55,237.86C232.75,238.07 233.02,238.25 233.35,238.4C233.68,238.55 234.06,238.69 234.48,238.82C234.9,238.95 235.34,239.09 235.78,239.24C236.22,239.4 236.66,239.58 237.08,239.79C237.5,240 237.88,240.27 238.21,240.59C238.54,240.92 238.81,241.31 239.01,241.78C239.21,242.25 239.31,242.81 239.31,243.47C239.31,244.2 239.18,244.89 238.93,245.52C238.68,246.16 238.31,246.72 237.83,247.19C237.35,247.66 236.75,248.04 236.05,248.31C235.34,248.58 234.54,248.72 233.64,248.72C233.15,248.72 232.64,248.67 232.13,248.57C231.62,248.47 231.12,248.33 230.65,248.14C230.17,247.96 229.72,247.74 229.3,247.48C228.88,247.22 228.51,246.94 228.2,246.63L229.29,244.91C229.37,244.78 229.48,244.67 229.63,244.59C229.78,244.51 229.93,244.47 230.1,244.47C230.32,244.47 230.54,244.54 230.76,244.68C230.98,244.82 231.23,244.97 231.51,245.14C231.79,245.31 232.11,245.46 232.47,245.6C232.83,245.74 233.26,245.81 233.75,245.81C234.42,245.81 234.94,245.66 235.31,245.37C235.68,245.08 235.86,244.61 235.86,243.97C235.86,243.6 235.76,243.3 235.56,243.07C235.36,242.84 235.09,242.65 234.76,242.49C234.43,242.34 234.05,242.2 233.63,242.09C233.21,241.97 232.78,241.84 232.34,241.7C231.9,241.56 231.47,241.38 231.05,241.18C230.63,240.97 230.25,240.7 229.92,240.36C229.59,240.02 229.32,239.6 229.12,239.1C228.92,238.6 228.82,237.97 228.82,237.23C228.82,236.64 228.94,236.06 229.18,235.49C229.42,234.92 229.77,234.42 230.23,233.98C230.69,233.54 231.26,233.18 231.94,232.92C232.61,232.66 233.39,232.52 234.26,232.52C234.75,232.52 235.22,232.56 235.68,232.63C236.14,232.71 236.58,232.82 236.99,232.97C237.4,233.12 237.79,233.3 238.15,233.5C238.51,233.71 238.83,233.94 239.11,234.2L238.19,235.94Z" style="fill-rule:nonzero;"/>
                    <path d="M240.49,246.86C240.49,246.6 240.54,246.36 240.64,246.13C240.74,245.91 240.87,245.71 241.04,245.54C241.21,245.37 241.41,245.24 241.64,245.14C241.87,245.04 242.13,244.99 242.4,244.99C242.67,244.99 242.92,245.04 243.15,245.14C243.38,245.24 243.58,245.37 243.76,245.54C243.93,245.71 244.07,245.9 244.17,246.13C244.27,246.35 244.32,246.6 244.32,246.86C244.32,247.12 244.27,247.37 244.17,247.59C244.07,247.82 243.94,248.02 243.76,248.18C243.59,248.35 243.38,248.48 243.15,248.57C242.92,248.66 242.67,248.71 242.4,248.71C242.12,248.71 241.87,248.66 241.64,248.57C241.41,248.48 241.21,248.35 241.04,248.18C240.87,248.01 240.74,247.82 240.64,247.59C240.54,247.36 240.49,247.12 240.49,246.86Z" style="fill-rule:nonzero;"/>
                    <path d="M254.15,242.7L254.15,248.56L250.47,248.56L250.47,232.72L255.62,232.72C256.77,232.72 257.74,232.84 258.55,233.07C259.36,233.31 260.02,233.63 260.53,234.05C261.04,234.47 261.41,234.97 261.64,235.54C261.87,236.11 261.99,236.74 261.99,237.41C261.99,237.92 261.92,238.41 261.78,238.87C261.64,239.33 261.44,239.75 261.17,240.14C260.9,240.53 260.56,240.87 260.17,241.18C259.78,241.49 259.32,241.73 258.81,241.93C259.06,242.05 259.29,242.21 259.5,242.39C259.71,242.57 259.9,242.79 260.06,243.05L263.43,248.56L260.1,248.56C259.48,248.56 259.04,248.33 258.77,247.86L256.14,243.26C256.02,243.06 255.89,242.91 255.73,242.83C255.57,242.74 255.35,242.7 255.07,242.7L254.15,242.7ZM254.15,240.17L255.63,240.17C256.13,240.17 256.56,240.11 256.91,239.98C257.26,239.85 257.55,239.68 257.77,239.45C257.99,239.22 258.16,238.96 258.26,238.66C258.36,238.36 258.41,238.04 258.41,237.69C258.41,236.99 258.18,236.45 257.73,236.06C257.28,235.67 256.58,235.47 255.63,235.47L254.15,235.47L254.15,240.17Z" style="fill-rule:nonzero;"/>
                    <rect x="265.26" y="232.73" width="3.7" height="15.84" style="fill-rule:nonzero;"/>
                    <path d="M279.14,245.91C279.65,245.91 280.1,245.87 280.49,245.78C280.88,245.69 281.25,245.58 281.6,245.43L281.6,243.03L280.03,243.03C279.8,243.03 279.62,242.97 279.49,242.85C279.36,242.73 279.29,242.57 279.29,242.38L279.29,240.36L284.92,240.36L284.92,247.05C284.51,247.35 284.09,247.6 283.65,247.82C283.21,248.03 282.74,248.21 282.25,248.35C281.76,248.49 281.22,248.59 280.66,248.65C280.1,248.72 279.49,248.75 278.85,248.75C277.69,248.75 276.62,248.55 275.63,248.14C274.64,247.73 273.79,247.17 273.07,246.44C272.35,245.71 271.78,244.86 271.37,243.87C270.96,242.88 270.76,241.81 270.76,240.65C270.76,239.47 270.96,238.38 271.35,237.39C271.74,236.4 272.3,235.55 273.03,234.83C273.76,234.11 274.64,233.55 275.67,233.16C276.7,232.77 277.86,232.56 279.13,232.56C279.79,232.56 280.41,232.61 280.99,232.72C281.57,232.83 282.1,232.98 282.59,233.17C283.08,233.36 283.53,233.58 283.93,233.84C284.34,234.1 284.7,234.38 285.02,234.69L283.95,236.31C283.85,236.46 283.73,236.58 283.59,236.67C283.45,236.76 283.29,236.8 283.13,236.8C282.91,236.8 282.69,236.73 282.46,236.58C282.17,236.41 281.9,236.26 281.64,236.13C281.38,236 281.12,235.9 280.85,235.82C280.58,235.74 280.3,235.68 280,235.65C279.7,235.62 279.37,235.6 279,235.6C278.31,235.6 277.69,235.72 277.14,235.96C276.59,236.2 276.12,236.55 275.73,236.99C275.34,237.43 275.04,237.96 274.83,238.58C274.62,239.2 274.51,239.89 274.51,240.65C274.51,241.49 274.63,242.24 274.86,242.89C275.09,243.54 275.41,244.09 275.82,244.54C276.23,244.99 276.72,245.33 277.28,245.57C277.86,245.79 278.47,245.91 279.14,245.91Z" style="fill-rule:nonzero;"/>
                    <path d="M301.21,248.57L297.51,248.57L297.51,241.87L291.07,241.87L291.07,248.57L287.37,248.57L287.37,232.73L291.07,232.73L291.07,239.35L297.51,239.35L297.51,232.73L301.21,232.73L301.21,248.57Z" style="fill-rule:nonzero;"/>
                    <path d="M315.55,232.72L315.55,235.63L311.09,235.63L311.09,248.56L307.41,248.56L307.41,235.63L302.95,235.63L302.95,232.72L315.55,232.72Z" style="fill-rule:nonzero;"/>
                    <path d="M332.77,232.72L332.77,235.63L328.31,235.63L328.31,248.56L324.63,248.56L324.63,235.63L320.17,235.63L320.17,232.72L332.77,232.72Z" style="fill-rule:nonzero;"/>
                    <path d="M349.28,240.64C349.28,241.79 349.08,242.85 348.69,243.84C348.29,244.83 347.74,245.68 347.02,246.41C346.3,247.14 345.44,247.71 344.43,248.12C343.42,248.53 342.3,248.74 341.06,248.74C339.83,248.74 338.7,248.53 337.69,248.12C336.67,247.71 335.81,247.14 335.09,246.41C334.37,245.68 333.81,244.82 333.42,243.84C333.02,242.85 332.83,241.79 332.83,240.64C332.83,239.49 333.03,238.43 333.42,237.44C333.81,236.45 334.37,235.6 335.09,234.87C335.81,234.14 336.68,233.58 337.69,233.16C338.7,232.75 339.83,232.54 341.06,232.54C342.29,232.54 343.41,232.75 344.43,233.16C345.45,233.57 346.31,234.15 347.02,234.87C347.74,235.59 348.29,236.45 348.69,237.44C349.08,238.44 349.28,239.5 349.28,240.64ZM345.52,240.64C345.52,239.86 345.42,239.15 345.22,238.52C345.02,237.89 344.73,237.36 344.34,236.93C343.96,236.5 343.49,236.16 342.94,235.93C342.39,235.7 341.76,235.58 341.06,235.58C340.35,235.58 339.72,235.7 339.16,235.93C338.61,236.16 338.14,236.5 337.76,236.93C337.38,237.37 337.09,237.9 336.88,238.52C336.68,239.15 336.58,239.85 336.58,240.64C336.58,241.43 336.68,242.14 336.88,242.77C337.08,243.4 337.37,243.93 337.76,244.36C338.14,244.79 338.61,245.13 339.16,245.35C339.71,245.58 340.35,245.69 341.06,245.69C341.76,245.69 342.39,245.58 342.94,245.35C343.49,245.12 343.96,244.79 344.34,244.36C344.72,243.92 345.01,243.39 345.22,242.77C345.43,242.15 345.52,241.43 345.52,240.64Z" style="fill-rule:nonzero;"/>
                    <path d="M358.91,239.14L359.5,239.14C360.04,239.14 360.44,238.97 360.67,238.63L364.24,233.45C364.44,233.17 364.66,232.98 364.91,232.87C365.16,232.76 365.47,232.72 365.83,232.72L369.03,232.72L364.33,239.12C364.16,239.35 363.99,239.54 363.81,239.7C363.63,239.85 363.44,239.98 363.26,240.08C363.54,240.18 363.79,240.32 364.02,240.5C364.25,240.68 364.46,240.92 364.64,241.21L369.43,248.56L366.15,248.56C365.94,248.56 365.76,248.55 365.61,248.52C365.46,248.49 365.33,248.45 365.22,248.39C365.11,248.33 365.02,248.26 364.94,248.18C364.86,248.1 364.78,248 364.71,247.89L361.12,242.38C360.99,242.18 360.83,242.03 360.63,241.95C360.43,241.87 360.16,241.83 359.82,241.83L358.93,241.83L358.93,248.57L355.25,248.57L355.25,232.73L358.93,232.73L358.93,239.14L358.91,239.14Z" style="fill-rule:nonzero;"/>
                    <path d="M373.1,232.74C373.21,232.75 373.31,232.78 373.39,232.82C373.48,232.86 373.56,232.92 373.64,232.99C373.72,233.06 373.81,233.16 373.91,233.28L381.43,242.79C381.4,242.49 381.38,242.19 381.36,241.9C381.34,241.61 381.34,241.34 381.34,241.09L381.34,232.71L384.58,232.71L384.58,248.55L382.67,248.55C382.39,248.55 382.15,248.51 381.95,248.42C381.75,248.33 381.57,248.17 381.38,247.94L373.91,238.5C373.93,238.78 373.95,239.05 373.96,239.31C373.97,239.58 373.98,239.82 373.98,240.06L373.98,248.55L370.74,248.55L370.74,232.71L372.68,232.71C372.86,232.72 372.99,232.73 373.1,232.74Z" style="fill-rule:nonzero;"/>
                    <path d="M403.06,240.64C403.06,241.79 402.86,242.85 402.47,243.84C402.07,244.83 401.52,245.68 400.8,246.41C400.08,247.14 399.22,247.71 398.21,248.12C397.2,248.53 396.08,248.74 394.84,248.74C393.61,248.74 392.48,248.53 391.47,248.12C390.45,247.71 389.59,247.14 388.87,246.41C388.15,245.68 387.59,244.82 387.2,243.84C386.8,242.85 386.61,241.79 386.61,240.64C386.61,239.49 386.81,238.43 387.2,237.44C387.59,236.45 388.15,235.6 388.87,234.87C389.59,234.14 390.46,233.58 391.47,233.16C392.48,232.75 393.61,232.54 394.84,232.54C396.07,232.54 397.19,232.75 398.21,233.16C399.23,233.57 400.09,234.15 400.8,234.87C401.52,235.59 402.07,236.45 402.47,237.44C402.87,238.44 403.06,239.5 403.06,240.64ZM399.3,240.64C399.3,239.86 399.2,239.15 399,238.52C398.8,237.89 398.51,237.36 398.12,236.93C397.74,236.5 397.27,236.16 396.72,235.93C396.17,235.7 395.54,235.58 394.84,235.58C394.13,235.58 393.5,235.7 392.94,235.93C392.39,236.16 391.92,236.5 391.54,236.93C391.16,237.37 390.87,237.9 390.66,238.52C390.46,239.15 390.36,239.85 390.36,240.64C390.36,241.43 390.46,242.14 390.66,242.77C390.86,243.4 391.15,243.93 391.54,244.36C391.92,244.79 392.39,245.13 392.94,245.35C393.49,245.58 394.13,245.69 394.84,245.69C395.54,245.69 396.17,245.58 396.72,245.35C397.27,245.12 397.74,244.79 398.12,244.36C398.5,243.92 398.79,243.39 399,242.77C399.21,242.15 399.3,241.43 399.3,240.64Z" style="fill-rule:nonzero;"/>
                    <path d="M402.97,232.72L406.06,232.72C406.38,232.72 406.64,232.79 406.86,232.94C407.07,233.09 407.21,233.28 407.28,233.52L409.45,241.78C409.52,242.05 409.59,242.33 409.67,242.64C409.74,242.94 409.8,243.26 409.83,243.6C409.9,243.26 409.98,242.94 410.07,242.64C410.16,242.34 410.24,242.05 410.32,241.79L412.89,233.53C412.96,233.33 413.09,233.14 413.31,232.98C413.52,232.82 413.78,232.74 414.09,232.74L415.18,232.74C415.5,232.74 415.76,232.81 415.97,232.95C416.18,233.09 416.32,233.28 416.4,233.53L418.94,241.79C419.02,242.04 419.1,242.31 419.19,242.6C419.28,242.89 419.35,243.19 419.42,243.52C419.48,243.2 419.54,242.9 419.6,242.61C419.66,242.32 419.72,242.05 419.79,241.79L421.96,233.53C422.02,233.32 422.16,233.13 422.37,232.98C422.59,232.82 422.85,232.74 423.15,232.74L426.04,232.74L421.15,248.58L417.82,248.58L414.84,238.76C414.79,238.61 414.74,238.44 414.68,238.26C414.63,238.08 414.57,237.89 414.52,237.68C414.47,237.88 414.42,238.08 414.36,238.26C414.31,238.44 414.25,238.61 414.2,238.76L411.18,248.58L407.85,248.58L402.97,232.72Z" style="fill-rule:nonzero;"/>
                </g>
            </g>
        </g>
    </g>
</svg>
