<?xml version="1.0" encoding="utf-8"?>
<!-- Generator: Adobe Illustrator 27.0.0, SVG Export Plug-In . SVG Version: 6.00 Build 0)  -->
<svg version="1.1" id="Layer_1" xmlns="http://www.w3.org/2000/svg" xmlns:xlink="http://www.w3.org/1999/xlink" x="0px" y="0px"
	 viewBox="0 0 233.8 400" style="enable-background:new 0 0 233.8 400;" xml:space="preserve">
<style type="text/css">
	.st0{fill:#F2F2F2;}
	.st1{fill:#19485E;}
	.st2{fill:#668460;}
	.st3{fill:#B8C46B;}
	.st4{fill:#FEF8E0;}
	.st5{fill:#FAE999;}
	.st6{fill:#FDC64B;}
	.st7{fill:#E3602D;}
	.st8{fill:#F4BFAB;}
	.st9{fill:#FF6666;}
	.st10{fill:#C90000;}
	.st11{fill:#650000;}
	.st12{fill:#9F9F9F;}
	.st13{font-family:'Georgia';}
	.st14{font-size:13px;}
	.st15{fill:none;stroke:#929497;stroke-width:0.5;stroke-miterlimit:10;}
	.st16{font-family:'Georgia-BoldItalic';}
	.st17{font-size:12px;}
	.st18{fill:#929497;}
	.st19{font-family:'Georgia-Italic';}
	.st20{font-size:10px;}
	.st21{font-family:'HelveticaNeue';}
	.st22{font-size:7px;}
</style>
<g id="Layer_1_00000008128432050556642970000007897388650681196221_">
	<g>
		<rect x="15" y="29.3" class="st0" width="29" height="29"/>
		<rect x="16.2" y="30.5" class="st1" width="26.6" height="26.6"/>
		<rect x="15" y="58.3" class="st0" width="29" height="29"/>
		<rect x="16.2" y="59.5" class="st2" width="26.6" height="26.6"/>
		<rect x="15" y="87.3" class="st0" width="29" height="29"/>
		<rect x="16.2" y="88.5" class="st3" width="26.6" height="26.6"/>
		<rect x="15" y="116.3" class="st0" width="29" height="29"/>
		<rect x="16.2" y="117.5" class="st4" width="26.6" height="26.6"/>
		<rect x="15" y="145.3" class="st0" width="29" height="29"/>
		<rect x="16.2" y="146.5" class="st5" width="26.6" height="26.6"/>
		<rect x="15" y="174.3" class="st0" width="29" height="29"/>
		<rect x="16.2" y="175.5" class="st6" width="26.6" height="26.6"/>
		<rect x="15" y="203.3" class="st0" width="29" height="29"/>
		<rect x="16.2" y="204.5" class="st7" width="26.6" height="26.6"/>
		<rect x="15" y="232.3" class="st0" width="29" height="29"/>
		<rect x="16.2" y="233.5" class="st8" width="26.6" height="26.6"/>
		<rect x="15" y="261.3" class="st0" width="29" height="29"/>
		<rect x="16.2" y="262.5" class="st9" width="26.6" height="26.6"/>
		<rect x="15" y="290.3" class="st0" width="29" height="29"/>
		<rect x="16.2" y="291.5" class="st10" width="26.6" height="26.6"/>
		<rect x="15" y="319.3" class="st0" width="29" height="29"/>
		<rect x="16.2" y="320.5" class="st11" width="26.6" height="26.6"/>
		<rect x="15" y="348.3" class="st0" width="29" height="29"/>
		<rect x="16.2" y="349.5" class="st12" width="26.6" height="26.6"/>
		<text transform="matrix(1 0 0 1 48.2087 47.7657)" class="st13 st14">Coconut</text>
		<text transform="matrix(1 0 0 1 48.2087 76.7657)" class="st13 st14">Palm</text>
		<text transform="matrix(1 0 0 1 48.2087 105.7657)" class="st13 st14">Olive</text>
		<text transform="matrix(1 0 0 1 48.2087 134.7657)" class="st13 st14">Rapeseed/Canola</text>
		<text transform="matrix(1 0 0 1 48.2087 163.7657)" class="st13 st14">Peanut</text>
		<text transform="matrix(1 0 0 1 48.2087 192.7657)" class="st13 st14">Ricebran</text>
		<text transform="matrix(1 0 0 1 48.2087 221.7657)" class="st13 st14">Sesame</text>
		<text transform="matrix(1 0 0 1 48.2087 250.7657)" class="st13 st14">Cottonseed</text>
		<text transform="matrix(1 0 0 1 48.2087 279.7657)" class="st13 st14">Corn</text>
		<text transform="matrix(1 0 0 1 48.2087 308.7657)" class="st13 st14">Soybean</text>
		<text transform="matrix(1 0 0 1 48.2087 337.7657)" class="st13 st14">Sunflower</text>
		<text transform="matrix(1 0 0 1 48.2087 366.7657)" class="st13 st14">Other</text>
	</g>
	<line class="st15" x1="4.3" y1="87.3" x2="222.1" y2="87.3"/>
	<line class="st15" x1="4.3" y1="116.3" x2="222.1" y2="116.3"/>
	<text transform="matrix(1 0 0 1 15.5812 22.221)" class="st16 st17">Plant-based oil sources</text>
	<text transform="matrix(1 0 0 1 120.4874 60.89)" class="st18 st19 st20">Mainly saturated fat</text>
	<text transform="matrix(1 0 0 1 119.9823 104.629)" class="st18 st19 st20">Monounsaturated fat</text>
	<text transform="matrix(1 0 0 1 122.908 252.1681)" class="st18 st19 st20">Polyunsaturated fats</text>
</g>
<g id="off-board">
	<text transform="matrix(1 0 0 1 15.5812 391.6251)" class="st18 st21 st22">Source: United Nations Food and Agriculture Statistics</text>
</g>
</svg>
